<svg width="24" height="24" viewBox="0 0 24 24" fill="none" xmlns="http://www.w3.org/2000/svg">
<g clip-path="url(#clip0_203_17)">
<path fill-rule="evenodd" clip-rule="evenodd" d="M7.34501 4.01697C10.4389 3.67403 13.5612 3.67403 16.655 4.01697C18.368 4.20897 19.75 5.55797 19.951 7.27697C20.3179 10.4146 20.3179 13.5843 19.951 16.722C19.8493 17.5572 19.4684 18.3337 18.8702 18.9254C18.2719 19.5171 17.4914 19.8894 16.655 19.982C13.5612 20.326 10.4388 20.326 7.34501 19.982C6.50866 19.8894 5.72809 19.5171 5.12983 18.9254C4.53158 18.3337 4.15072 17.5572 4.04901 16.722C3.68211 13.5847 3.68211 10.4153 4.04901 7.27797C4.15068 6.44284 4.53139 5.66651 5.12944 5.07481C5.7275 4.48311 6.50784 4.11071 7.34401 4.01797L7.34501 4.01697ZM8.47001 8.46997C8.61064 8.32952 8.80126 8.25063 9.00001 8.25063C9.19876 8.25063 9.38939 8.32952 9.53001 8.46997L12 10.94L14.47 8.46997C14.5387 8.39628 14.6215 8.33718 14.7135 8.29619C14.8055 8.25519 14.9048 8.23315 15.0055 8.23138C15.1062 8.2296 15.2062 8.24812 15.2996 8.28585C15.393 8.32357 15.4778 8.37971 15.549 8.45093C15.6203 8.52215 15.6764 8.60698 15.7141 8.70037C15.7519 8.79376 15.7704 8.89379 15.7686 8.99449C15.7668 9.09519 15.7448 9.19451 15.7038 9.28651C15.6628 9.37851 15.6037 9.46131 15.53 9.52997L13.06 12L15.53 14.47C15.6625 14.6121 15.7346 14.8002 15.7312 14.9945C15.7278 15.1888 15.649 15.3742 15.5116 15.5116C15.3742 15.649 15.1888 15.7277 14.9945 15.7311C14.8002 15.7346 14.6122 15.6624 14.47 15.53L12 13.06L9.53001 15.53C9.46135 15.6037 9.37855 15.6628 9.28655 15.7037C9.19455 15.7447 9.09524 15.7668 8.99453 15.7686C8.89383 15.7703 8.7938 15.7518 8.70041 15.7141C8.60703 15.6764 8.52219 15.6202 8.45097 15.549C8.37975 15.4778 8.32361 15.393 8.28589 15.2996C8.24817 15.2062 8.22964 15.1061 8.23142 15.0054C8.2332 14.9047 8.25524 14.8054 8.29623 14.7134C8.33722 14.6214 8.39632 14.5386 8.47001 14.47L10.94 12L8.47001 9.52997C8.32956 9.38934 8.25067 9.19872 8.25067 8.99997C8.25067 8.80122 8.32956 8.61059 8.47001 8.46997Z" fill="#CCCCCC"/>
</g>
<defs>
<clipPath id="clip0_203_17">
<rect width="24" height="24" fill="white"/>
</clipPath>
</defs>
</svg>
